<svg version="1.1" id="Layer_1" xmlns="http://www.w3.org/2000/svg" xmlns:xlink="http://www.w3.org/1999/xlink" x="0px" y="0px"
	 width="100%" viewBox="0 0 420 420" enable-background="new 0 0 420 420" xml:space="preserve">
<path fill="#F0F0F0" opacity="1.000000" stroke="none" 
	d="
M278.000000,421.000000 
	C185.333344,421.000000 93.166687,421.000000 1.000025,421.000000 
	C1.000016,281.000031 1.000016,141.000061 1.000008,1.000062 
	C140.999954,1.000041 280.999908,1.000041 420.999908,1.000021 
	C420.999939,140.999939 420.999939,280.999878 420.999969,420.999908 
	C373.500000,421.000000 326.000000,421.000000 278.000000,421.000000 
M292.500000,387.000000 
	C323.910919,387.000000 355.321808,387.000000 386.665253,387.000000 
	C386.665253,362.925903 386.665253,339.673706 386.665253,315.777588 
	C339.961884,315.777588 293.589294,315.777588 247.359680,315.777588 
	C247.359680,292.542267 247.359680,269.956268 247.359680,246.903412 
	C270.636688,246.903412 293.559052,246.903412 317.122620,246.903412 
	C317.122620,223.397156 317.122620,200.353302 317.122620,176.851349 
	C340.689514,176.851349 363.611816,176.851349 386.589417,176.851349 
	C386.589417,129.675934 386.589417,82.973763 386.589417,36.335190 
	C362.925110,36.335190 339.672852,36.335190 315.776733,36.335190 
	C315.776733,83.039017 315.776733,129.411591 315.776733,175.639893 
	C292.541412,175.639893 269.955383,175.639893 246.902573,175.639893 
	C246.902573,152.362411 246.902573,129.440063 246.902573,106.386093 
	C223.059097,106.386093 199.689499,106.386093 175.850586,106.386093 
	C175.850586,129.690262 175.850586,152.612610 175.850586,175.587875 
	C152.672867,175.587875 129.969589,175.587875 106.799660,175.587875 
	C106.799660,128.924728 106.799660,82.671875 106.799660,36.437168 
	C82.955994,36.437168 59.585953,36.437168 36.360466,36.437168 
	C36.360466,83.459648 36.360466,130.044174 36.360466,177.098160 
	C59.638309,177.098160 82.560654,177.098160 106.124161,177.098160 
	C106.124161,200.604813 106.124161,223.647949 106.124161,247.150177 
	C129.691025,247.150177 152.613373,247.150177 175.587479,247.150177 
	C175.587479,270.327911 175.587479,293.031189 175.587479,316.201111 
	C128.923935,316.201111 82.671089,316.201111 36.437698,316.201111 
	C36.437698,340.044617 36.437698,363.414490 36.437698,386.639130 
	C83.460602,386.639130 130.045029,386.639130 177.098938,386.639130 
	C177.098938,363.360870 177.098938,340.438538 177.098938,317.386932 
	C200.275894,317.386932 222.978867,317.386932 246.151062,317.386932 
	C246.151062,340.691956 246.151062,363.614288 246.151062,387.000000 
	C261.579529,387.000000 276.539764,387.000000 292.500000,387.000000 
z"/>
<path fill="#6DCC7B" opacity="1.000000" stroke="none" 
	d="
M292.000000,387.000000 
	C276.539764,387.000000 261.579529,387.000000 246.151062,387.000000 
	C246.151062,363.614288 246.151062,340.691956 246.151062,317.386932 
	C222.978867,317.386932 200.275894,317.386932 177.098938,317.386932 
	C177.098938,340.438538 177.098938,363.360870 177.098938,386.639130 
	C130.045029,386.639130 83.460602,386.639130 36.437698,386.639130 
	C36.437698,363.414490 36.437698,340.044617 36.437698,316.201111 
	C82.671089,316.201111 128.923935,316.201111 175.587479,316.201111 
	C175.587479,293.031189 175.587479,270.327911 175.587479,247.150177 
	C152.613373,247.150177 129.691025,247.150177 106.124161,247.150177 
	C106.124161,223.647949 106.124161,200.604813 106.124161,177.098160 
	C82.560654,177.098160 59.638309,177.098160 36.360466,177.098160 
	C36.360466,130.044174 36.360466,83.459648 36.360466,36.437168 
	C59.585953,36.437168 82.955994,36.437168 106.799660,36.437168 
	C106.799660,82.671875 106.799660,128.924728 106.799660,175.587875 
	C129.969589,175.587875 152.672867,175.587875 175.850586,175.587875 
	C175.850586,152.612610 175.850586,129.690262 175.850586,106.386093 
	C199.689499,106.386093 223.059097,106.386093 246.902573,106.386093 
	C246.902573,129.440063 246.902573,152.362411 246.902573,175.639893 
	C269.955383,175.639893 292.541412,175.639893 315.776733,175.639893 
	C315.776733,129.411591 315.776733,83.039017 315.776733,36.335190 
	C339.672852,36.335190 362.925110,36.335190 386.589417,36.335190 
	C386.589417,82.973763 386.589417,129.675934 386.589417,176.851349 
	C363.611816,176.851349 340.689514,176.851349 317.122620,176.851349 
	C317.122620,200.353302 317.122620,223.397156 317.122620,246.903412 
	C293.559052,246.903412 270.636688,246.903412 247.359680,246.903412 
	C247.359680,269.956268 247.359680,292.542267 247.359680,315.777588 
	C293.589294,315.777588 339.961884,315.777588 386.665253,315.777588 
	C386.665253,339.673706 386.665253,362.925903 386.665253,387.000000 
	C355.321808,387.000000 323.910919,387.000000 292.000000,387.000000 
M246.000000,236.459320 
	C246.000000,216.722946 246.000000,196.986572 246.000000,177.329315 
	C222.587875,177.329315 200.010086,177.329315 177.418869,177.329315 
	C177.418869,200.356750 177.418869,223.052307 177.418869,245.668213 
	C200.416962,245.668213 222.994736,245.668213 246.000000,245.668213 
	C246.000000,242.713959 246.000000,240.079575 246.000000,236.459320 
z"/>
<path fill="#F0F0F0" opacity="1.000000" stroke="none" 
	d="
M246.000000,236.952255 
	C246.000000,240.079575 246.000000,242.713959 246.000000,245.668213 
	C222.994736,245.668213 200.416962,245.668213 177.418869,245.668213 
	C177.418869,223.052307 177.418869,200.356750 177.418869,177.329315 
	C200.010086,177.329315 222.587875,177.329315 246.000000,177.329315 
	C246.000000,196.986572 246.000000,216.722946 246.000000,236.952255 
z"/>
</svg>